<svg width="186" height="36" viewBox="0 0 186 36" fill="none" xmlns="http://www.w3.org/2000/svg">
<path d="M26.4839 33.9677C26.6129 34.1541 26.6774 34.3262 26.6774 34.4839C26.6774 34.6416 26.6129 34.7706 26.4839 34.871C26.3548 34.957 26.1756 35 25.9462 35H20.914C20.4695 35 20.1254 34.8208 19.8817 34.4624L10.8495 21.7312L6.41935 26.7419V34.1398C6.41935 34.7133 6.13262 35 5.55914 35H1.45161C0.878136 35 0.591398 34.7133 0.591398 34.1398V5.64516C0.591398 5.07168 0.878136 4.78495 1.45161 4.78495H5.55914C6.13262 4.78495 6.41935 5.07168 6.41935 5.64516V18.8065L18.0108 5.27957C18.2832 4.94982 18.6344 4.78495 19.0645 4.78495H24.1828C24.4122 4.78495 24.5914 4.82796 24.7204 4.91398C24.8495 5 24.914 5.12186 24.914 5.27957C24.914 5.45161 24.828 5.63799 24.6559 5.83871L14.6344 17.3226L26.4839 33.9677ZM29.844 5.51613C29.2705 5.51613 28.9838 5.22939 28.9838 4.65591V1.08602C28.9838 0.512544 29.2705 0.225806 29.844 0.225806H33.6935C34.2669 0.225806 34.5537 0.512544 34.5537 1.08602V4.65591C34.5537 5.22939 34.2669 5.51613 33.6935 5.51613H29.844ZM34.5322 34.1398C34.5322 34.7133 34.2454 35 33.672 35H29.8655C29.292 35 29.0053 34.7133 29.0053 34.1398V9.98925C29.0053 9.41577 29.292 9.12903 29.8655 9.12903H33.672C34.2454 9.12903 34.5322 9.41577 34.5322 9.98925V34.1398ZM45.4741 34.1398C45.4741 34.7133 45.1874 35 44.6139 35H40.8075C40.234 35 39.9472 34.7133 39.9472 34.1398V14.2688H37.2591C36.6856 14.2688 36.3989 13.9821 36.3989 13.4086V9.98925C36.3989 9.41577 36.6856 9.12903 37.2591 9.12903H39.9257V4.56989C39.9257 4.03943 40.1838 3.72401 40.6999 3.62365L44.5494 2.91398C44.6067 2.89964 44.6784 2.89247 44.7644 2.89247C44.9938 2.89247 45.1731 2.96416 45.3021 3.10753C45.4311 3.2509 45.4956 3.44444 45.4956 3.68817V9.12903H50.1408C50.7143 9.12903 51.001 9.41577 51.001 9.98925V13.4086C51.001 13.9821 50.7143 14.2688 50.1408 14.2688H45.4741V34.1398ZM63.8035 35.6237C61.3519 35.6237 59.1225 35.0215 57.1153 33.8172C55.1225 32.6129 53.5526 30.9857 52.4057 28.9355C51.2587 26.871 50.6852 24.6272 50.6852 22.2043C50.6852 19.7527 51.2229 17.4946 52.2981 15.4301C53.3734 13.3656 54.8573 11.7312 56.7497 10.5269C58.6566 9.30824 60.7784 8.69892 63.1153 8.69892C65.6386 8.69892 67.8394 9.27957 69.7175 10.4409C71.61 11.6022 73.058 13.2079 74.0616 15.2581C75.0652 17.2939 75.567 19.595 75.567 22.1613C75.567 22.3907 75.5526 22.7921 75.5239 23.3656C75.4809 23.8387 75.1799 24.0753 74.6207 24.0753H56.3196C56.5777 25.3943 57.0795 26.5484 57.825 27.5376C58.5705 28.5269 59.4809 29.2939 60.5562 29.8387C61.6458 30.3692 62.7999 30.6344 64.0186 30.6344C66.1261 30.6344 68.0329 29.9821 69.739 28.6774C69.911 28.5197 70.1046 28.4409 70.3196 28.4409C70.5634 28.4409 70.7713 28.5699 70.9433 28.828L72.7282 31.3656C72.8716 31.5806 72.9433 31.767 72.9433 31.9247C72.9433 32.1685 72.8286 32.3835 72.5992 32.5699C71.3806 33.5448 70.0329 34.2975 68.5562 34.828C67.0795 35.3584 65.4953 35.6237 63.8035 35.6237ZM70.0831 19.7527C69.7247 17.8315 68.9433 16.319 67.739 15.2151C66.549 14.1111 65.0652 13.5591 63.2874 13.5591C62.1548 13.5591 61.101 13.8172 60.1261 14.3333C59.1655 14.8351 58.3483 15.552 57.6745 16.4839C57.015 17.4158 56.5562 18.5054 56.2981 19.7527H70.0831Z" fill="black"/>
<path d="M107.261 34.1398C107.261 34.7133 106.974 35 106.401 35H87.8632C87.2897 35 87.0029 34.7133 87.0029 34.1398V5.64516C87.0029 5.07168 87.2897 4.78495 87.8632 4.78495H93.8847C94.4581 4.78495 94.7449 5.07168 94.7449 5.64516V27.6022H106.401C106.974 27.6022 107.261 27.8889 107.261 28.4624V34.1398ZM127.918 9.64516C128.105 9.20072 128.434 8.97849 128.907 8.97849H133.036C133.61 8.97849 133.897 9.26523 133.897 9.83871V34.1398C133.897 34.7133 133.61 35 133.036 35H128.757C128.284 35 127.954 34.7778 127.768 34.3333L127.23 33.043C125.438 34.7204 123.187 35.5591 120.477 35.5591C118.026 35.5591 115.768 34.957 113.703 33.7527C111.639 32.5341 110.004 30.8925 108.8 28.828C107.596 26.7491 106.993 24.4767 106.993 22.0108C106.993 19.5591 107.596 17.3082 108.8 15.2581C110.019 13.1935 111.66 11.5591 113.725 10.3548C115.789 9.15054 118.04 8.54839 120.477 8.54839C123.216 8.54839 125.488 9.40143 127.295 11.1075L127.918 9.64516ZM120.606 28.5699C121.796 28.5699 122.879 28.2975 123.854 27.7527C124.843 27.1935 125.617 26.4265 126.176 25.4516C126.75 24.4624 127.036 23.3513 127.036 22.1183C127.036 20.871 126.757 19.7527 126.198 18.7634C125.639 17.7599 124.872 16.9713 123.897 16.3978C122.922 15.8244 121.839 15.5376 120.649 15.5376C119.459 15.5376 118.377 15.8244 117.402 16.3978C116.441 16.957 115.682 17.7384 115.122 18.7419C114.578 19.7455 114.305 20.871 114.305 22.1183C114.305 23.3656 114.578 24.4767 115.122 25.4516C115.667 26.4265 116.413 27.1935 117.359 27.7527C118.32 28.2975 119.402 28.5699 120.606 28.5699ZM151.344 8.54839C153.781 8.54839 156.032 9.15054 158.097 10.3548C160.161 11.5591 161.796 13.1935 163 15.2581C164.219 17.3082 164.828 19.5591 164.828 22.0108C164.828 24.4767 164.226 26.7491 163.022 28.828C161.817 30.8925 160.183 32.5341 158.118 33.7527C156.054 34.957 153.796 35.5591 151.344 35.5591C148.634 35.5591 146.384 34.7204 144.591 33.043L144.054 34.3333C143.867 34.7778 143.538 35 143.065 35H138.785C138.212 35 137.925 34.7133 137.925 34.1398V2.2043C137.925 1.63082 138.212 1.34408 138.785 1.34408H144.376C144.95 1.34408 145.237 1.63082 145.237 2.2043V10.5054C146.914 9.20072 148.95 8.54839 151.344 8.54839ZM151.215 28.5699C152.419 28.5699 153.495 28.2975 154.441 27.7527C155.402 27.1935 156.154 26.4265 156.699 25.4516C157.244 24.4767 157.516 23.3656 157.516 22.1183C157.516 20.871 157.237 19.7455 156.678 18.7419C156.133 17.7384 155.373 16.957 154.398 16.3978C153.437 15.8244 152.362 15.5376 151.172 15.5376C149.982 15.5376 148.9 15.8244 147.925 16.3978C146.95 16.9713 146.183 17.7599 145.624 18.7634C145.065 19.7527 144.785 20.871 144.785 22.1183C144.785 23.3513 145.065 24.4624 145.624 25.4516C146.197 26.4265 146.971 27.1935 147.946 27.7527C148.936 28.2975 150.025 28.5699 151.215 28.5699ZM176.082 35.6452C174.046 35.6452 172.168 35.3082 170.448 34.6344C168.741 33.9462 167.143 32.9427 165.652 31.6237C165.422 31.4373 165.308 31.2294 165.308 31C165.308 30.8136 165.387 30.6201 165.544 30.4194L168.448 26.7849C168.648 26.5412 168.856 26.4194 169.071 26.4194C169.229 26.4194 169.422 26.4982 169.652 26.6559C170.698 27.4444 171.731 28.0538 172.749 28.4839C173.781 28.914 174.82 29.129 175.867 29.129C176.584 29.129 177.157 28.9928 177.587 28.7204C178.017 28.4337 178.233 28.0323 178.233 27.5161C178.233 27.172 178.103 26.8566 177.845 26.5699C177.602 26.2832 177.172 25.9964 176.555 25.7097C175.939 25.4086 175.064 25.0645 173.931 24.6774C171.767 23.9462 169.982 22.9498 168.577 21.6882C167.172 20.4265 166.469 18.6918 166.469 16.4839C166.469 15.0789 166.813 13.7742 167.501 12.5699C168.204 11.3656 169.265 10.3978 170.684 9.66667C172.118 8.92115 173.874 8.54839 175.953 8.54839C177.387 8.54839 178.856 8.83512 180.362 9.4086C181.881 9.96774 183.222 10.8065 184.383 11.9247C184.584 12.1254 184.684 12.3262 184.684 12.5269C184.684 12.6989 184.584 12.8996 184.383 13.129L180.985 16.6344C180.799 16.8351 180.598 16.9355 180.383 16.9355C180.197 16.9355 179.996 16.8495 179.781 16.6774C179.193 16.2043 178.541 15.8172 177.824 15.5161C177.121 15.2007 176.419 15.043 175.716 15.043C174.985 15.043 174.426 15.1792 174.039 15.4516C173.666 15.724 173.48 16.0968 173.48 16.5699C173.48 16.8996 173.616 17.2007 173.888 17.4731C174.175 17.7312 174.627 17.9964 175.243 18.2688C175.86 18.5269 176.72 18.8351 177.824 19.1935C180.19 19.9534 182.017 20.9713 183.308 22.2473C184.598 23.5233 185.243 25.2509 185.243 27.4301C185.243 28.8495 184.878 30.19 184.147 31.4516C183.43 32.6989 182.376 33.7097 180.985 34.4839C179.609 35.2581 177.974 35.6452 176.082 35.6452Z" fill="#0093FF"/>
</svg>
